<svg xmlns="http://www.w3.org/2000/svg" xmlns:xlink="http://www.w3.org/1999/xlink" width="512" zoomAndPan="magnify" viewBox="0 0 384 383.999986" height="512" preserveAspectRatio="xMidYMid meet" version="1.0"><defs><g/><clipPath id="6de6811049"><rect x="0" width="203" y="0" height="148"/></clipPath></defs><rect x="-38.4" width="460.8" fill="#ffffff" y="-38.399999" height="460.799983" fill-opacity="1"/><rect x="-38.4" width="460.8" fill="#0d1a34" y="-38.399999" height="460.799983" fill-opacity="1"/><g transform="matrix(1, 0, 0, 1, 95, 118)"><g clip-path="url(#6de6811049)"><g fill="#ffffff" fill-opacity="1"><g transform="translate(0.318105, 105.995416)"><g><path d="M 7.0625 -97.09375 L 35.1875 -97.09375 C 48.6875 -97.09375 60.21875 -92.484375 69.78125 -83.265625 C 79.351562 -74.046875 84.140625 -62.492188 84.140625 -48.609375 C 84.140625 -34.640625 79.375 -23.046875 69.84375 -13.828125 C 60.3125 -4.609375 48.757812 0 35.1875 0 L 7.0625 0 Z M 29.1875 -19.765625 L 32.59375 -19.765625 C 40.675781 -19.765625 47.285156 -22.488281 52.421875 -27.9375 C 57.566406 -33.394531 60.175781 -40.242188 60.25 -48.484375 C 60.25 -56.722656 57.679688 -63.585938 52.546875 -69.078125 C 47.410156 -74.578125 40.757812 -77.328125 32.59375 -77.328125 L 29.1875 -77.328125 Z M 29.1875 -19.765625 "/></g></g></g><g fill="#ffffff" fill-opacity="1"><g transform="translate(96.110823, 105.995416)"><g><path d="M 94.859375 -54.375 L 94.859375 -33.3125 C 92.347656 -21.769531 86.851562 -13.035156 78.375 -7.109375 C 69.90625 -1.191406 60.453125 1.765625 50.015625 1.765625 C 36.910156 1.765625 25.75 -3.132812 16.53125 -12.9375 C 7.3125 -22.75 2.703125 -34.597656 2.703125 -48.484375 C 2.703125 -62.609375 7.210938 -74.535156 16.234375 -84.265625 C 25.265625 -93.992188 36.523438 -98.859375 50.015625 -98.859375 C 65.785156 -98.859375 78.257812 -93.328125 87.4375 -82.265625 L 72.96875 -66.375 C 67.789062 -74.6875 60.570312 -78.84375 51.3125 -78.84375 C 44.488281 -78.84375 38.660156 -75.878906 33.828125 -69.953125 C 29.003906 -64.035156 26.59375 -56.878906 26.59375 -48.484375 C 26.59375 -40.242188 29.003906 -33.203125 33.828125 -27.359375 C 38.660156 -21.515625 44.488281 -18.59375 51.3125 -18.59375 C 56.957031 -18.59375 61.878906 -20.296875 66.078125 -23.703125 C 70.273438 -27.117188 72.375 -31.65625 72.375 -37.3125 L 50.015625 -37.3125 L 50.015625 -54.375 Z M 94.859375 -54.375 "/></g></g></g></g></g></svg>