<svg xmlns="http://www.w3.org/2000/svg" xmlns:xlink="http://www.w3.org/1999/xlink" width="512" zoomAndPan="magnify" viewBox="0 0 384 383.999986" height="512" preserveAspectRatio="xMidYMid meet" version="1.0"><defs><g/><clipPath id="1defa0c667"><rect x="0" width="322" y="0" height="234"/></clipPath></defs><rect x="-38.4" width="460.8" fill="#ffffff" y="-38.399999" height="460.799983" fill-opacity="1"/><rect x="-38.4" width="460.8" fill="#0d1a34" y="-38.399999" height="460.799983" fill-opacity="1"/><g transform="matrix(1, 0, 0, 1, 38, 75)"><g clip-path="url(#1defa0c667)"><g fill="#ffffff" fill-opacity="1"><g transform="translate(1.225437, 167.558448)"><g><path d="M 11.15625 -153.40625 L 55.59375 -153.40625 C 76.914062 -153.40625 95.140625 -146.125 110.265625 -131.5625 C 125.390625 -117 132.953125 -98.742188 132.953125 -76.796875 C 132.953125 -54.734375 125.421875 -36.414062 110.359375 -21.84375 C 95.296875 -7.28125 77.039062 0 55.59375 0 L 11.15625 0 Z M 46.109375 -31.234375 L 51.515625 -31.234375 C 64.273438 -31.234375 74.710938 -35.539062 82.828125 -44.15625 C 90.953125 -52.78125 95.078125 -63.597656 95.203125 -76.609375 C 95.203125 -89.628906 91.140625 -100.476562 83.015625 -109.15625 C 74.898438 -117.832031 64.398438 -122.171875 51.515625 -122.171875 L 46.109375 -122.171875 Z M 46.109375 -31.234375 "/></g></g></g><g fill="#ffffff" fill-opacity="1"><g transform="translate(152.594951, 167.558448)"><g><path d="M 149.875 -85.90625 L 149.875 -52.625 C 145.90625 -34.40625 137.226562 -20.613281 123.84375 -11.25 C 110.457031 -1.882812 95.519531 2.796875 79.03125 2.796875 C 58.320312 2.796875 40.6875 -4.953125 26.125 -20.453125 C 11.5625 -35.953125 4.28125 -54.671875 4.28125 -76.609375 C 4.28125 -98.921875 11.40625 -117.765625 25.65625 -133.140625 C 39.914062 -148.515625 57.707031 -156.203125 79.03125 -156.203125 C 103.945312 -156.203125 123.65625 -147.460938 138.15625 -129.984375 L 115.296875 -104.875 C 107.109375 -118.019531 95.703125 -124.59375 81.078125 -124.59375 C 70.285156 -124.59375 61.078125 -119.910156 53.453125 -110.546875 C 45.835938 -101.191406 42.03125 -89.878906 42.03125 -76.609375 C 42.03125 -63.597656 45.835938 -52.472656 53.453125 -43.234375 C 61.078125 -33.992188 70.285156 -29.375 81.078125 -29.375 C 90.003906 -29.375 97.78125 -32.070312 104.40625 -37.46875 C 111.039062 -42.863281 114.359375 -50.023438 114.359375 -58.953125 L 79.03125 -58.953125 L 79.03125 -85.90625 Z M 149.875 -85.90625 "/></g></g></g></g></g></svg>