<svg xmlns="http://www.w3.org/2000/svg" xmlns:xlink="http://www.w3.org/1999/xlink" width="512" zoomAndPan="magnify" viewBox="0 0 384 383.999986" height="512" preserveAspectRatio="xMidYMid meet" version="1.0"><defs><g/><clipPath id="55ee66da18"><rect x="0" width="372" y="0" height="274"/></clipPath></defs><rect x="-38.4" width="460.8" fill="#ffffff" y="-38.399999" height="460.799983" fill-opacity="1"/><rect x="-38.4" width="460.8" fill="#0d1a34" y="-38.399999" height="460.799983" fill-opacity="1"/><g transform="matrix(1, 0, 0, 1, 12, 55)"><g clip-path="url(#55ee66da18)"><g fill="#ffffff" fill-opacity="1"><g transform="translate(0.525734, 196.39432)"><g><path d="M 13.109375 -180.21875 L 65.3125 -180.21875 C 90.363281 -180.21875 111.769531 -171.660156 129.53125 -154.546875 C 147.300781 -137.441406 156.1875 -116 156.1875 -90.21875 C 156.1875 -64.300781 147.335938 -42.785156 129.640625 -25.671875 C 111.953125 -8.554688 90.507812 0 65.3125 0 L 13.109375 0 Z M 54.171875 -36.703125 L 60.515625 -36.703125 C 75.515625 -36.703125 87.78125 -41.757812 97.3125 -51.875 C 106.851562 -62 111.695312 -74.707031 111.84375 -90 C 111.84375 -105.289062 107.070312 -118.035156 97.53125 -128.234375 C 88 -138.429688 75.660156 -143.53125 60.515625 -143.53125 L 54.171875 -143.53125 Z M 54.171875 -36.703125 "/></g></g></g><g fill="#ffffff" fill-opacity="1"><g transform="translate(178.349409, 196.39432)"><g><path d="M 176.078125 -100.921875 L 176.078125 -61.828125 C 171.410156 -40.410156 161.210938 -24.203125 145.484375 -13.203125 C 129.753906 -2.210938 112.207031 3.28125 92.84375 3.28125 C 68.519531 3.28125 47.800781 -5.820312 30.6875 -24.03125 C 13.582031 -42.238281 5.03125 -64.226562 5.03125 -90 C 5.03125 -116.21875 13.398438 -138.351562 30.140625 -156.40625 C 46.890625 -174.46875 67.789062 -183.5 92.84375 -183.5 C 122.113281 -183.5 145.269531 -173.234375 162.3125 -152.703125 L 135.4375 -123.203125 C 125.820312 -138.640625 112.425781 -146.359375 95.25 -146.359375 C 82.570312 -146.359375 71.753906 -140.859375 62.796875 -129.859375 C 53.847656 -118.867188 49.375 -105.582031 49.375 -90 C 49.375 -74.707031 53.847656 -61.632812 62.796875 -50.78125 C 71.753906 -39.9375 82.570312 -34.515625 95.25 -34.515625 C 105.726562 -34.515625 114.863281 -37.679688 122.65625 -44.015625 C 130.445312 -50.347656 134.34375 -58.757812 134.34375 -69.25 L 92.84375 -69.25 L 92.84375 -100.921875 Z M 176.078125 -100.921875 "/></g></g></g></g></g></svg>